<?xml version="1.0" encoding="UTF-8" standalone="no"?>
<svg
   xmlns:dc="http://purl.org/dc/elements/1.1/"
   xmlns:cc="http://creativecommons.org/ns#"
   xmlns:rdf="http://www.w3.org/1999/02/22-rdf-syntax-ns#"
   xmlns:svg="http://www.w3.org/2000/svg"
   xmlns="http://www.w3.org/2000/svg"
   height="200.5"
   width="200.60001"
   xml:space="preserve"
   viewBox="0 0 200.60001 200.5"
   y="0px"
   x="0px"
   id="Layer_1"
   version="1.1"><metadata
   id="metadata15"><rdf:RDF><cc:Work
       rdf:about=""><dc:format>image/svg+xml</dc:format><dc:type
         rdf:resource="http://purl.org/dc/dcmitype/StillImage" /><dc:title></dc:title></cc:Work></rdf:RDF></metadata><defs
   id="defs13" />
<style
   id="style2"
   type="text/css">
	.st0{fill:#FFFFFF;}
	.st1{fill:#222222;}
</style>
<path
   style="fill:#ffffff"
   id="path4"
   d="M 173.5,91.7 C 173.5,46.6 136.9,10 91.8,10 46.7,10 10.1,46.6 10.1,91.7 c 0,45.1 36.6,81.7 81.7,81.7 45.1,0 81.7,-36.6 81.7,-81.7 z"
   class="st0" />
<path
   style="fill:#ffffff"
   id="path6"
   d="m 182,100.2 c 0,-45.1 -36.6,-81.7 -81.7,-81.7 -45.1,0 -81.7,36.6 -81.7,81.7 0,45.1 36.6,81.7 81.7,81.7 45.1,0 81.7,-36.6 81.7,-81.7 z"
   class="st0" />
<path
   style="fill:#222222"
   id="path8"
   d="M 171.2,29.3 C 152.3,10.4 127.1,0 100.3,0 73.5,0 48.4,10.4 29.4,29.3 10.5,48.2 0,73.4 0,100.2 c 0,26.8 10.4,51.9 29.4,70.9 18.9,18.9 44.1,29.4 70.9,29.4 26.8,0 52,-10.4 70.9,-29.3 18.9,-18.9 29.4,-44.1 29.4,-70.9 -0.1,-26.9 -10.5,-52 -29.4,-71 z m -27.5,96 c -11.9,20.3 -35.8,29.2 -57.4,23 l -6.5,11.1 -20,-11.7 6.3,-10.8 C 52,123.9 46.5,103.8 52.1,85.4 L 69,95.3 c -1.8,12.4 3.8,25.2 15.3,31.9 15,8.8 34.4,3.7 43.1,-11.3 8.8,-15 3.7,-34.4 -11.3,-43.1 -11.4,-6.7 -25.3,-5.3 -35.2,2.3 l -17,-9.9 C 77,51.6 96.8,46.4 114.8,52 l 6.3,-10.8 20,11.6 -6.3,10.8 c 16.7,15.6 20.9,41.2 8.9,61.7 z"
   class="st1" />
</svg>