<?xml version="1.0" encoding="UTF-8" standalone="no"?>
<svg
   xmlns:dc="http://purl.org/dc/elements/1.1/"
   xmlns:cc="http://creativecommons.org/ns#"
   xmlns:rdf="http://www.w3.org/1999/02/22-rdf-syntax-ns#"
   xmlns:svg="http://www.w3.org/2000/svg"
   xmlns="http://www.w3.org/2000/svg"
   height="200.5"
   width="645.09998"
   xml:space="preserve"
   viewBox="0 0 645.09998 200.5"
   y="0px"
   x="0px"
   id="Layer_1"
   version="1.1"><metadata
   id="metadata31"><rdf:RDF><cc:Work
       rdf:about=""><dc:format>image/svg+xml</dc:format><dc:type
         rdf:resource="http://purl.org/dc/dcmitype/StillImage" /><dc:title></dc:title></cc:Work></rdf:RDF></metadata><defs
   id="defs29" />
<style
   id="style2"
   type="text/css">
	.st0{fill:#FFFFFF;}
</style>
<g
   transform="translate(-129.9,-193.3)"
   id="g24">
	<g
   id="g20">
		<g
   id="g6">
			<path
   style="fill:#ffffff"
   id="path4"
   d="m 493.6,238 h 23.1 v 21.6 h 0.4 c 0.7,-3 2.1,-6 4.2,-8.8 2.1,-2.9 4.6,-5.5 7.5,-7.9 2.9,-2.4 6.2,-4.3 9.8,-5.7 3.6,-1.4 7.3,-2.2 11,-2.2 2.9,0 4.9,0.1 5.9,0.2 1.1,0.1 2.2,0.3 3.3,0.4 v 23.7 c -1.7,-0.3 -3.5,-0.5 -5.3,-0.8 -1.8,-0.2 -3.6,-0.3 -5.3,-0.3 -4.2,0 -8.1,0.8 -11.8,2.5 -3.7,1.7 -6.9,4.1 -9.6,7.3 -2.7,3.2 -4.9,7.2 -6.5,12 -1.6,4.7 -2.4,10.2 -2.4,16.4 v 53.4 H 493.3 V 238 Z"
   class="st0" />
		</g>
		<g
   id="g10">
			<path
   style="fill:#ffffff"
   id="path8"
   d="m 404,262.2 c 3,-2.9 6.3,-4.9 9.9,-6 3.6,-1.1 6.9,-1.6 10.1,-1.6 6.9,0 12.5,1.8 17,5.3 4.5,3.5 7.3,8.7 8.3,15.5 h 24.4 c -0.6,-6.9 -2.3,-12.8 -5.1,-17.8 -2.9,-5 -6.5,-9.1 -11,-12.4 -4.5,-3.3 -9.6,-5.7 -15.4,-7.4 -5.8,-1.6 -11.9,-2.5 -18.3,-2.5 -9.1,0 -17.1,1.5 -23.9,4.6 -6.8,3.1 -12.5,7.3 -17,12.6 -4.6,5.4 -8,11.7 -10.3,19 -2.3,7.3 -3.4,15.1 -3.4,23.4 0,8.1 1.2,15.7 3.5,22.7 2.4,7 5.8,13 10.4,18.1 4.6,5.1 10.2,9.1 16.8,12 6.6,2.9 14.3,4.4 23,4.4 14.3,0 25.8,-3.8 34.4,-11.5 8.6,-7.6 14.1,-18.7 16.4,-33.1 h -24.4 c -1.1,8 -4,14.2 -8.7,18.6 -4.6,4.4 -10.5,6.6 -17.7,6.6 -5.3,0 -9.8,-1.1 -13.5,-3.3 -3.7,-2.2 -6.8,-5.1 -9.1,-8.7 -2.4,-3.6 -4.1,-7.6 -5.1,-12.2 -1.1,-4.6 -1.6,-9.1 -1.6,-13.7 0,-8.4 1,-15.3 3,-20.5 1.8,-5.1 4.3,-9.2 7.3,-12.1 z"
   class="st0" />
		</g>
		<g
   id="g14">
			<path
   style="fill:#ffffff"
   id="path12"
   d="m 761,242.5 c -4.2,-2.6 -9,-4.4 -14.3,-5.6 -5.3,-1.1 -10.6,-1.7 -16.1,-1.7 -6.1,0 -12.1,0.6 -18,1.7 -5.9,1.1 -11.1,3.1 -15.8,6 -4.6,2.9 -8.5,6.6 -11.5,11.4 -3,4.7 -4.7,10.6 -5.1,17.8 h 24.4 c 0.6,-6 3.1,-10.4 7.5,-13.3 4.4,-2.9 10.1,-4.3 16.9,-4.3 2.4,0 5,0.2 7.7,0.5 2.7,0.4 5.2,1.1 7.4,2.1 2.2,1.1 4.1,2.6 5.6,4.6 1.5,2 2.3,4.6 2.3,7.7 0,3.6 -0.9,6.3 -2.7,8 -1.8,1.8 -4.2,3.1 -7.3,4 -3.1,0.9 -6.6,1.5 -10.6,1.8 -4,0.4 -8.2,1 -12.6,1.8 -5.1,0.6 -10.3,1.4 -15.3,2.5 -5.1,1.1 -9.6,2.8 -13.7,5.3 -4.1,2.4 -7.4,5.8 -9.9,10.1 -2.5,4.3 -3.8,9.9 -3.8,16.7 0,5.4 1,10.2 3.1,14.3 2.1,4.1 4.9,7.4 8.4,10.1 3.5,2.6 7.5,4.6 12.1,6 4.6,1.4 9.4,2 14.4,2 6.6,0 13.4,-1.1 20.5,-3.2 7.1,-2.1 13,-5.6 17.9,-10.3 -0.1,2.4 -0.1,9.9 -0.1,9.9 v 1.3 h 22.5 l 0.1,-25.3 v -57 c 0,-5.9 -1.3,-10.8 -3.9,-14.9 -2.5,-4.1 -5.9,-7.4 -10.1,-10 z m -10.4,69.3 c 0,3.9 -0.9,7.1 -2.8,9.8 -1.9,2.6 -4.2,4.8 -7,6.5 -2.8,1.7 -5.8,2.9 -8.9,3.6 -3.1,0.7 -6.1,1.1 -8.8,1.1 -2.1,0 -4.5,-0.2 -7.2,-0.6 -2.6,-0.4 -5.1,-1.2 -7.3,-2.3 -2.2,-1.1 -4.1,-2.5 -5.7,-4.4 -1.6,-1.9 -2.4,-4.1 -2.4,-6.9 0,-3.1 0.5,-5.8 1.6,-8 1.1,-2.2 2.5,-4 4.4,-5.4 1.9,-1.4 4,-2.4 6.4,-3.2 2.4,-0.8 4.9,-1.4 7.5,-1.8 5.4,-1 10.9,-1.7 16.3,-2.3 5.4,-0.5 10,-2 13.7,-4.4 v 18.3 z"
   class="st0" />
		</g>
		<g
   id="g18">
			<path
   style="fill:#ffffff"
   id="path16"
   d="m 652,255.2 c -4.6,-6 -10.3,-10.8 -17.3,-14.5 -6.9,-3.6 -14.8,-5.5 -23.5,-5.5 -8.3,0 -15.7,1.6 -22.3,4.7 -6.6,3.1 -12.2,7.4 -16.8,12.8 -4.6,5.4 -8.2,11.6 -10.7,18.6 -2.5,7.1 -3.8,14.5 -3.8,22.4 0,8.6 1.2,16.4 3.5,23.6 2.4,7.1 5.9,13.3 10.5,18.4 4.6,5.1 10.3,9.1 17,12 6.7,2.9 14.4,4.3 23.1,4.3 6,0 11.8,-0.8 17.3,-2.5 5.5,-1.6 10.5,-4.1 14.9,-7.3 4.4,-3.2 8.2,-7.2 11.4,-11.9 3.1,-4.7 5.4,-10.1 6.6,-16.1 h -23.1 c -2.1,6.1 -5.4,10.8 -9.8,13.8 -4.4,3.1 -10.1,4.6 -17.3,4.6 -5.1,0 -9.6,-0.9 -13.3,-2.7 -3.7,-1.8 -6.8,-4.2 -9.2,-7.2 -2.4,-3 -4.3,-6.5 -5.5,-10.5 -1.2,-4 -1.8,-8.1 -1.8,-12.4 h 81.4 c 1,-8.3 0.5,-16.3 -1.6,-24.1 -1.8,-7.6 -5.1,-14.5 -9.7,-20.5 z m -69.8,28.7 c 0.1,-4.1 1,-8 2.5,-11.6 1.5,-3.6 3.5,-6.7 6,-9.3 2.5,-2.6 5.5,-4.7 9,-6.2 3.5,-1.5 7.4,-2.3 11.7,-2.3 4.1,0 7.9,0.8 11.3,2.5 3.4,1.6 6.2,3.8 8.6,6.4 2.4,2.6 4.2,5.8 5.6,9.3 1.4,3.6 2.2,7.3 2.5,11.1 h -57.2 z"
   class="st0" />
		</g>
	</g>
	<path
   style="fill:#ffffff"
   id="path22"
   d="m 301.1,222.6 c -18.9,-18.9 -44.1,-29.3 -70.9,-29.3 -26.8,0 -51.9,10.4 -70.9,29.3 -18.9,18.9 -29.4,44.1 -29.4,70.9 0,26.8 10.4,51.9 29.4,70.9 18.9,18.9 44.1,29.4 70.9,29.4 26.8,0 52,-10.4 70.9,-29.3 18.9,-18.9 29.4,-44.1 29.4,-70.9 -0.1,-26.9 -10.5,-52 -29.4,-71 z m -26.8,96.3 c -11.7,20.2 -35.5,29.8 -57.9,23.5 l -6.5,11.3 -21,-12.2 6.4,-11 c -14,-13.2 -19.5,-33.5 -13.9,-52 l 0.2,-0.6 17.9,10.5 -0.1,0.4 c -1.9,12.7 4,25 15.1,31.5 7.2,4.2 15.6,5.3 23.6,3.2 8,-2.1 14.8,-7.2 19,-14.4 8.6,-14.8 3.6,-33.9 -11.2,-42.6 -11,-6.4 -24.6,-5.5 -34.7,2.3 l -0.3,0.2 -17.9,-10.5 0.5,-0.5 c 13.1,-13.6 33.2,-18.9 51.3,-13.6 l 6.4,-11 21,12.2 -6.4,11 c 16.8,16.3 20.4,41.9 8.5,62.3 z"
   class="st0" />
</g>
</svg>